{
  "accessors": [
    {
      "bufferView": 2,
      "componentType": 5126,
      "count": 65532,
      "max": [
        0.5211269855499268,
        0.9946020245552063,
        0.18062500655651093
      ],
      "min": [
        -0.5223550200462341,
        -0.9971629977226257,
        -0.09855599701404572
      ],
      "type": "VEC3"
    },
    {
      "bufferView": 2,
      "byteOffset": 786384,
      "componentType": 5126,
      "count": 65532,
      "max": [
        0.9999940395355225,
        0.9999414682388306,
        0.9999901056289673
      ],
      "min": [
        -0.9999918341636658,
        -0.9999940991401672,
        -0.9999231100082397
      ],
      "type": "VEC3"
    },
    {
      "bufferView": 1,
      "componentType": 5126,
      "count": 65532,
      "max": [
        0.9963449835777283,
        0.9999390244483948
      ],
      "min": [
        7.699999696342275e-05,
        7.987022399902344e-06
      ],
      "type": "VEC2"
    },
    {
      "bufferView": 1,
      "byteOffset": 524256,
      "componentType": 5126,
      "count": 65532,
      "max": [
        0.9963449835777283,
        0.9999390244483948
      ],
      "min": [
        7.699999696342275e-05,
        7.987022399902344e-06
      ],
      "type": "VEC2"
    },
    {
      "bufferView": 1,
      "byteOffset": 1048512,
      "componentType": 5126,
      "count": 65532,
      "max": [
        0.9963449835777283,
        0.9999390244483948
      ],
      "min": [
        7.699999696342275e-05,
        7.987022399902344e-06
      ],
      "type": "VEC2"
    },
    {
      "bufferView": 1,
      "byteOffset": 1572768,
      "componentType": 5126,
      "count": 65532,
      "max": [
        0.9963449835777283,
        0.9999390244483948
      ],
      "min": [
        7.699999696342275e-05,
        7.987022399902344e-06
      ],
      "type": "VEC2"
    },
    {
      "bufferView": 0,
      "componentType": 5125,
      "count": 344400,
      "type": "SCALAR"
    },
    {
      "bufferView": 2,
      "byteOffset": 1572768,
      "componentType": 5126,
      "count": 65532,
      "max": [
        0.4976150095462799,
        0.9946020245552063,
        0.04256900027394295
      ],
      "min": [
        -0.48679399490356445,
        -0.9979320168495178,
        -0.1899529993534088
      ],
      "type": "VEC3"
    },
    {
      "bufferView": 2,
      "byteOffset": 2359152,
      "componentType": 5126,
      "count": 65532,
      "max": [
        0.9999711513519287,
        0.9999707937240601,
        0.9999152421951294
      ],
      "min": [
        -0.999991774559021,
        -0.999988317489624,
        -1.0
      ],
      "type": "VEC3"
    },
    {
      "bufferView": 1,
      "byteOffset": 2097024,
      "componentType": 5126,
      "count": 65532,
      "max": [
        0.9958289861679077,
        0.9999819993972778
      ],
      "min": [
        0.00015199999324977398,
        1.1026859283447266e-05
      ],
      "type": "VEC2"
    },
    {
      "bufferView": 1,
      "byteOffset": 2621280,
      "componentType": 5126,
      "count": 65532,
      "max": [
        0.9958289861679077,
        0.9999819993972778
      ],
      "min": [
        0.00015199999324977398,
        1.1026859283447266e-05
      ],
      "type": "VEC2"
    },
    {
      "bufferView": 1,
      "byteOffset": 3145536,
      "componentType": 5126,
      "count": 65532,
      "max": [
        0.9958289861679077,
        0.9999819993972778
      ],
      "min": [
        0.00015199999324977398,
        1.1026859283447266e-05
      ],
      "type": "VEC2"
    },
    {
      "bufferView": 1,
      "byteOffset": 3669792,
      "componentType": 5126,
      "count": 65532,
      "max": [
        0.9958289861679077,
        0.9999819993972778
      ],
      "min": [
        0.00015199999324977398,
        1.1026859283447266e-05
      ],
      "type": "VEC2"
    },
    {
      "bufferView": 0,
      "byteOffset": 1377600,
      "componentType": 5125,
      "count": 336084,
      "type": "SCALAR"
    },
    {
      "bufferView": 2,
      "byteOffset": 3145536,
      "componentType": 5126,
      "count": 6990,
      "max": [
        0.43536999821662903,
        0.9941819906234741,
        0.012895000167191029
      ],
      "min": [
        -0.43438199162483215,
        -0.9979400038719177,
        -0.07504899799823761
      ],
      "type": "VEC3"
    },
    {
      "bufferView": 2,
      "byteOffset": 3229416,
      "componentType": 5126,
      "count": 6990,
      "max": [
        0.9999229907989502,
        0.9998776316642761,
        0.9991516470909119
      ],
      "min": [
        -0.9999829530715942,
        -0.999988317489624,
        -0.9998430609703064
      ],
      "type": "VEC3"
    },
    {
      "bufferView": 1,
      "byteOffset": 4194048,
      "componentType": 5126,
      "count": 6990,
      "max": [
        0.9947460293769836,
        0.9994869828224182
      ],
      "min": [
        0.001151000033132732,
        8.499622344970703e-05
      ],
      "type": "VEC2"
    },
    {
      "bufferView": 1,
      "byteOffset": 4249968,
      "componentType": 5126,
      "count": 6990,
      "max": [
        0.9947460293769836,
        0.9994869828224182
      ],
      "min": [
        0.001151000033132732,
        8.499622344970703e-05
      ],
      "type": "VEC2"
    },
    {
      "bufferView": 1,
      "byteOffset": 4305888,
      "componentType": 5126,
      "count": 6990,
      "max": [
        0.9947460293769836,
        0.9994869828224182
      ],
      "min": [
        0.001151000033132732,
        8.499622344970703e-05
      ],
      "type": "VEC2"
    },
    {
      "bufferView": 1,
      "byteOffset": 4361808,
      "componentType": 5126,
      "count": 6990,
      "max": [
        0.9947460293769836,
        0.9994869828224182
      ],
      "min": [
        0.001151000033132732,
        8.499622344970703e-05
      ],
      "type": "VEC2"
    },
    {
      "bufferView": 0,
      "byteOffset": 2721936,
      "componentType": 5125,
      "count": 20541,
      "type": "SCALAR"
    }
  ],
  "asset": {
    "extras": {
      "author": "Padarozhnik (https://sketchfab.com/Padarozhnik)",
      "license": "CC-BY-4.0 (http://creativecommons.org/licenses/by/4.0/)",
      "source": "https://sketchfab.com/3d-models/archers-cloak-7604044e3c744fd996bf783a3fe9db53",
      "title": "Archer's Cloak"
    },
    "generator": "Sketchfab-16.73.0",
    "version": "2.0"
  },
  "bufferViews": [
    {
      "buffer": 0,
      "byteLength": 2804100,
      "name": "floatBufferViews",
      "target": 34963
    },
    {
      "buffer": 0,
      "byteLength": 4417728,
      "byteOffset": 2804100,
      "byteStride": 8,
      "name": "floatBufferViews",
      "target": 34962
    },
    {
      "buffer": 0,
      "byteLength": 3313296,
      "byteOffset": 7221828,
      "byteStride": 12,
      "name": "floatBufferViews",
      "target": 34962
    }
  ],
  "buffers": [
    {
      "byteLength": 10535124,
      "uri": "scene.bin"
    }
  ],
  "extensionsUsed": [
    "KHR_materials_unlit"
  ],
  "images": [
    {
      "uri": "material_0_baseColor.jpeg"
    }
  ],
  "materials": [
    {
      "doubleSided": true,
      "extensions": {
        "KHR_materials_unlit": {}
      },
      "name": "material_0",
      "pbrMetallicRoughness": {
        "baseColorTexture": {
          "index": 0
        },
        "metallicFactor": 0.0
      }
    }
  ],
  "meshes": [
    {
      "name": "Object_0",
      "primitives": [
        {
          "attributes": {
            "NORMAL": 1,
            "POSITION": 0,
            "TEXCOORD_0": 2,
            "TEXCOORD_1": 3,
            "TEXCOORD_2": 4,
            "TEXCOORD_3": 5
          },
          "indices": 6,
          "material": 0,
          "mode": 4
        }
      ]
    },
    {
      "name": "Object_1",
      "primitives": [
        {
          "attributes": {
            "NORMAL": 8,
            "POSITION": 7,
            "TEXCOORD_0": 9,
            "TEXCOORD_1": 10,
            "TEXCOORD_2": 11,
            "TEXCOORD_3": 12
          },
          "indices": 13,
          "material": 0,
          "mode": 4
        }
      ]
    },
    {
      "name": "Object_2",
      "primitives": [
        {
          "attributes": {
            "NORMAL": 15,
            "POSITION": 14,
            "TEXCOORD_0": 16,
            "TEXCOORD_1": 17,
            "TEXCOORD_2": 18,
            "TEXCOORD_3": 19
          },
          "indices": 20,
          "material": 0,
          "mode": 4
        }
      ]
    }
  ],
  "nodes": [
    {
      "children": [
        1
      ],
      "matrix": [
        1.0,
        0.0,
        0.0,
        0.0,
        0.0,
        2.220446049250313e-16,
        -1.0,
        0.0,
        0.0,
        1.0,
        2.220446049250313e-16,
        0.0,
        0.0,
        0.0,
        0.0,
        1.0
      ],
      "name": "Sketchfab_model"
    },
    {
      "children": [
        2
      ],
      "name": "root"
    },
    {
      "children": [
        3
      ],
      "matrix": [
        1.0,
        0.0,
        0.0,
        0.0,
        0.0,
        2.220446049250313e-16,
        1.0,
        0.0,
        0.0,
        -1.0,
        2.220446049250313e-16,
        0.0,
        0.0,
        0.0,
        0.0,
        1.0
      ],
      "name": "GLTF_SceneRootNode"
    },
    {
      "children": [
        4,
        5,
        6
      ],
      "name": "_0"
    },
    {
      "mesh": 0,
      "name": "Object_4"
    },
    {
      "mesh": 1,
      "name": "Object_5"
    },
    {
      "mesh": 2,
      "name": "Object_6"
    }
  ],
  "samplers": [
    {
      "magFilter": 9729,
      "minFilter": 9987,
      "wrapS": 10497,
      "wrapT": 10497
    }
  ],
  "scene": 0,
  "scenes": [
    {
      "name": "Sketchfab_Scene",
      "nodes": [
        0
      ]
    }
  ],
  "textures": [
    {
      "sampler": 0,
      "source": 0
    }
  ]
}
